<?xml version="1.0" encoding="UTF-8" standalone="no"?>
<svg
   xmlns:dc="http://purl.org/dc/elements/1.1/"
   xmlns:cc="http://creativecommons.org/ns#"
   xmlns:rdf="http://www.w3.org/1999/02/22-rdf-syntax-ns#"
   xmlns:svg="http://www.w3.org/2000/svg"
   xmlns="http://www.w3.org/2000/svg"
   xmlns:sodipodi="http://sodipodi.sourceforge.net/DTD/sodipodi-0.dtd"
   xmlns:inkscape="http://www.inkscape.org/namespaces/inkscape"
   height="256"
   width="256"
   viewBox="0 0 256 256"
   id="svg2"
   version="1.1"
   inkscape:version="0.91 r13725"
   sodipodi:docname="favicon.svg"
   inkscape:export-filename="D:\Projekty\Machina\docs\favicon.png"
   inkscape:export-xdpi="90"
   inkscape:export-ydpi="90">
  <metadata
     id="metadata13">
    <rdf:RDF>
      <cc:Work
         rdf:about="">
        <dc:format>image/svg+xml</dc:format>
        <dc:type
           rdf:resource="http://purl.org/dc/dcmitype/StillImage" />
      </cc:Work>
    </rdf:RDF>
  </metadata>
  <defs
     id="defs11" />
  <sodipodi:namedview
     pagecolor="#ffffff"
     bordercolor="#666666"
     borderopacity="1"
     objecttolerance="10"
     gridtolerance="10"
     guidetolerance="10"
     inkscape:pageopacity="0"
     inkscape:pageshadow="2"
     inkscape:window-width="1920"
     inkscape:window-height="1017"
     id="namedview9"
     showgrid="false"
     inkscape:zoom="0.921875"
     inkscape:cx="128"
     inkscape:cy="128"
     inkscape:window-x="-8"
     inkscape:window-y="-8"
     inkscape:window-maximized="1"
     inkscape:current-layer="svg2" />
  <circle
     style="fill:#0072c6;fill-opacity:1"
     r="128"
     id="ellipse6"
     cx="128"
     cy="128" />
  <path
     style="fill:#ffffff"
     inkscape:connector-curvature="0"
     d="m 128,163.93139 c 4.49993,0 8.4375,1.68752 11.81236,5.06254 5.625,6.74998 5.06264,16.31244 -1.68743,22.49995 -6.75007,5.62499 -16.875,5.62499 -22.5,-1.12506 -5.625,-6.18744 -5.06264,-16.31243 1.68744,-22.49995 2.8125,-2.8125 6.75006,-3.93748 10.68763,-3.93748 z m -1.12507,-48.37484 c 8.4375,0 16.875,1.68743 24.75014,5.06246 10.68729,5.06245 20.24986,14.06246 29.81243,24.18746 l -20.81257,18.56248 C 135.87479,138.0565 120.68757,135.24401 94.25,159.99392 l -1.125069,1.12498 -18.000068,-20.81244 1.125068,-1.12498 c 14.0625,-15.18744 32.624939,-23.06248 50.624999,-23.62493 z m -0.004,-55.125359 c 1.12762,-0.01711 2.25426,-0.01711 3.37925,4.67e-4 14.0625,-2e-6 27.56264,2.812492 39.93771,8.999927 C 193.24986,82.369074 207.31236,94.744028 218,106.55654 L 196.06236,126.244 C 185.93743,114.99402 174.12507,104.30658 158.37479,95.869094 124.62479,80.68156 80.749863,94.181582 58.249863,119.49403 L 57.124794,120.61901 38,98.681589 39.125069,97.556523 C 56.017514,77.939428 91.9143,60.961713 126.87054,60.431191 Z"
     id="path1" />
</svg>
