<?xml version="1.0" encoding="utf-8"?>
<svg xmlns="http://www.w3.org/2000/svg" height="256" width="256" viewBox="0 0 256 256">
  <g>
    <ellipse cy="128" cx="128" ry="128" rx="128" fill="#FEA500" />
    <path id="path1" transform="rotate(0,128,128) translate(38,60.4184125662228) scale(5.625,5.625)  " fill="#FFFFFF" d="M16,18.402307C16.799988,18.402307 17.5,18.702311 18.099976,19.302315 19.099976,20.50231 19,22.202303 17.799988,23.302305 16.599976,24.302303 14.799988,24.302303 13.799988,23.102295 12.799988,22.002306 12.899963,20.202307 14.099976,19.102303 14.599976,18.602304 15.299988,18.402307 16,18.402307z M15.799988,9.8023357C17.299988,9.8023357 18.799988,10.102323 20.200012,10.702328 22.099976,11.60232 23.799988,13.202322 25.5,15.002321L21.799988,18.302317C17.399963,13.802327,14.700012,13.302328,10,17.702312L9.7999878,17.902309 6.5999756,14.20232 6.7999878,14.002323C9.2999878,11.302333,12.599976,9.9023265,15.799988,9.8023357z M15.799207,0.002271611C15.999673,-0.00077098132 16.199965,-0.00077080233 16.399963,0.0023545807 18.899963,0.0023543816 21.299988,0.50235327 23.5,1.6023416 27.599976,3.9023397 30.099976,6.1023316 32,8.2023334L28.099976,11.702326C26.299988,9.7023296 24.200012,7.80234 21.399963,6.3023433 15.399963,3.6023373 7.5999756,6.0023412 3.5999756,10.502332L3.3999634,10.702328 0,6.8023424 0.20001221,6.6023306C3.2031136,3.1148471,9.5847645,0.096586712,15.799207,0.002271611z" />
  </g>
</svg>

